<svg width="23" height="22" viewBox="0 0 23 22" fill="none" xmlns="http://www.w3.org/2000/svg">
<path d="M12.5024 8.90863L19.683 1.71875H14.5938V0.171875H22.3281V7.90625H20.7812V2.81703L13.5914 9.99917L12.5024 8.91017V8.90863ZM17.6148 12.8733C18.2531 12.8733 18.8657 13.1251 19.3195 13.574C19.4896 13.7442 19.6783 13.9205 19.8872 14.1061L20.5523 14.6986C20.7843 14.9074 21.0025 15.1255 21.2035 15.3498C21.4046 15.5757 21.5949 15.8061 21.7728 16.0397C21.9491 16.2718 22.0822 16.5223 22.1703 16.7884C22.2601 17.0545 22.3127 17.3205 22.3281 17.5866C22.3275 18.2243 22.0758 18.8362 21.6274 19.2897C21.2159 19.7012 20.8462 20.0631 20.5152 20.3787C20.2017 20.6795 19.8574 20.9465 19.4881 21.1753C19.1323 21.3919 18.7347 21.5543 18.2923 21.6595C17.7802 21.7718 17.2574 21.8284 16.7331 21.8281C15.8156 21.8221 14.9039 21.6835 14.026 21.4167C13.068 21.1303 12.1405 20.7499 11.2571 20.2812C10.313 19.781 9.41223 19.2031 8.56403 18.5534C7.68387 17.8833 6.85168 17.1524 6.07356 16.3661C5.29239 15.5772 4.56691 14.7419 3.89866 13.8648C3.25241 13.0222 2.68197 12.1241 2.194 11.181C1.74015 10.3029 1.36836 9.38482 1.08334 8.43838C0.817859 7.57668 0.679249 6.68093 0.671875 5.7793C0.671875 5.16673 0.724469 4.64389 0.829656 4.20767C0.927184 3.79026 1.09007 3.39088 1.31228 3.02431C1.52884 2.66853 1.79645 2.32822 2.11047 1.99719C2.42448 1.66616 2.79109 1.29181 3.20875 0.87261C3.66292 0.423316 4.2761 0.171484 4.91495 0.171875C5.31714 0.171875 5.70386 0.280157 6.07511 0.496719C6.44636 0.716376 6.80523 0.980891 7.15173 1.29645C7.49669 1.61047 7.81689 1.93995 8.10616 2.28645C8.39542 2.63295 8.66922 2.9315 8.926 3.18055C9.37492 3.63434 9.62672 4.24688 9.62673 4.8852C9.63227 5.17476 9.57967 5.46248 9.47205 5.73134C9.37412 5.96968 9.244 6.19348 9.08533 6.3965C8.93058 6.59089 8.76039 6.77247 8.57641 6.93945C8.39078 7.10961 8.22217 7.27049 8.06903 7.42363C7.92689 7.56425 7.7936 7.71355 7.66994 7.87067C7.56034 8.00689 7.50472 8.17869 7.5137 8.3533C7.5137 8.45075 7.58641 8.60389 7.73027 8.81272C7.91704 9.07391 8.119 9.3239 8.33509 9.56141C8.93586 10.2364 9.56068 10.8896 10.2084 11.5198C10.5703 11.8755 10.9215 12.2158 11.2602 12.5469C11.5975 12.8779 11.9254 13.1919 12.2394 13.4905C12.5534 13.7875 12.8195 14.0412 13.036 14.2515C13.2526 14.4604 13.4228 14.6228 13.5434 14.7342C13.6812 14.8771 13.8659 14.9656 14.0636 14.9835C14.2613 15.0014 14.4588 14.9474 14.62 14.8316C14.7639 14.7264 14.914 14.5965 15.0671 14.4449C15.2202 14.2902 15.3765 14.1216 15.5373 13.936C15.6982 13.7503 15.8838 13.5817 16.0942 13.4286C16.303 13.2755 16.5242 13.1424 16.7594 13.0295C17.0288 12.9108 17.3224 12.8572 17.6163 12.8733H17.6148ZM16.7331 20.2812C17.225 20.2812 17.6349 20.2364 17.9659 20.1482C18.289 20.0628 18.5954 19.9237 18.8724 19.7367C19.1462 19.5511 19.403 19.3346 19.6458 19.0855C19.8872 18.8349 20.1811 18.541 20.5276 18.2038C20.6977 18.0336 20.7812 17.8325 20.7812 17.599C20.7812 17.4938 20.7163 17.3453 20.5879 17.1504C20.4359 16.9265 20.2743 16.7092 20.1037 16.4991C19.8976 16.2429 19.6755 16.0001 19.4386 15.7721C19.1911 15.5323 18.9482 15.3096 18.7146 15.1085C18.5113 14.9307 18.2975 14.7654 18.0742 14.6135C17.8809 14.4851 17.7277 14.4201 17.6148 14.4201C17.4417 14.4214 17.2732 14.476 17.1322 14.5764C16.9693 14.689 16.8189 14.8186 16.6836 14.9631C16.5397 15.1178 16.3819 15.2864 16.2133 15.472C16.0432 15.6576 15.8575 15.8263 15.6565 15.9794C15.4554 16.1325 15.2342 16.2656 14.9913 16.3785C14.7257 16.4954 14.4365 16.5489 14.1467 16.5347C13.8293 16.5367 13.5148 16.4747 13.2219 16.3525C12.9291 16.2302 12.6638 16.0502 12.442 15.8232L6.67839 10.0564C6.45582 9.8354 6.27918 9.57254 6.15864 9.28297C6.03659 8.98736 5.971 8.67151 5.96528 8.35175C5.96528 8.03774 6.01787 7.7593 6.12152 7.51799C6.2267 7.27667 6.35509 7.05083 6.50823 6.84045C6.66292 6.63163 6.83153 6.45064 7.01716 6.2975C7.20278 6.14436 7.37139 5.98348 7.52453 5.81333C7.67767 5.64472 7.8107 5.49622 7.92363 5.36628C8.03756 5.23245 8.09375 5.05887 8.07986 4.88366C8.07986 4.77847 8.01489 4.62997 7.8865 4.43506C7.73657 4.21406 7.57549 4.00083 7.40388 3.7962C7.19361 3.54412 6.97165 3.30202 6.73872 3.07072C6.50742 2.83778 6.26533 2.61582 6.01323 2.40556C5.80346 2.23049 5.58563 2.06531 5.36045 1.91056C5.15936 1.77289 5.01086 1.70947 4.91341 1.7172C4.7989 1.7152 4.6852 1.73667 4.57931 1.78031C4.47343 1.82394 4.3776 1.8888 4.29775 1.97089C4.00563 2.26299 3.71172 2.55329 3.41603 2.84178C3.17153 3.07563 2.9527 3.33491 2.76325 3.61522C2.5799 3.89262 2.44495 4.19913 2.36416 4.52169C2.26783 4.92138 2.21902 5.33104 2.21875 5.74217C2.21875 6.51561 2.3425 7.31225 2.59309 8.13364C2.85921 8.99511 3.2073 9.82908 3.63259 10.6241C4.07655 11.461 4.60712 12.2762 5.22742 13.0651C5.84772 13.854 6.51288 14.6073 7.22289 15.3235C8.61311 16.7303 10.2003 17.9277 11.9347 18.8782C12.715 19.3039 13.5371 19.6481 14.388 19.9054C15.1485 20.1386 15.9378 20.2646 16.7331 20.2797V20.2812Z" fill="white"/>
</svg>
