<svg width="15" height="19" viewBox="0 0 15 19" fill="none" xmlns="http://www.w3.org/2000/svg">
<path d="M0.921706 17.5312H13.578C13.7537 17.5309 13.9231 17.5964 14.053 17.7148C14.1828 17.8332 14.2636 17.9959 14.2795 18.1708C14.2954 18.3458 14.2452 18.5204 14.1387 18.6602C14.0323 18.8 13.8774 18.8949 13.7045 18.9262L13.578 18.9375H0.921706C0.746001 18.9378 0.576542 18.8724 0.446699 18.754C0.316856 18.6356 0.236038 18.4729 0.220163 18.2979C0.204287 18.1229 0.254503 17.9483 0.360921 17.8085C0.46734 17.6687 0.622249 17.5738 0.795144 17.5425L0.921706 17.5312H13.578H0.921706ZM7.12327 0.6675L7.24983 0.65625C7.4144 0.656195 7.57377 0.713866 7.7002 0.819219C7.82662 0.924573 7.91208 1.07093 7.94171 1.23281L7.95296 1.35938V13.7231L11.7245 9.95297C11.8409 9.83649 11.9944 9.76453 12.1583 9.74963C12.3223 9.73472 12.4863 9.77782 12.6217 9.87141L12.7201 9.95297C12.8364 10.0695 12.9081 10.2231 12.9228 10.387C12.9374 10.551 12.8941 10.7149 12.8003 10.8502L12.7187 10.9472L7.74764 15.9197C7.63113 16.0359 7.47752 16.1076 7.31357 16.1223C7.14963 16.1369 6.98574 16.0936 6.85046 15.9998L6.75202 15.9197L1.78093 10.9472C1.65635 10.8232 1.58275 10.657 1.57462 10.4814C1.5665 10.3058 1.62443 10.1335 1.73702 9.99856C1.8496 9.86356 2.00866 9.77563 2.18286 9.7521C2.35705 9.72856 2.53374 9.77113 2.67811 9.87141L2.77514 9.95297L6.54671 13.7231V1.35938C6.54665 1.19481 6.60432 1.03544 6.70968 0.909011C6.81503 0.782587 6.96139 0.697122 7.12327 0.6675L7.24983 0.65625L7.12327 0.6675Z" fill="#E97B67"/>
</svg>
