<svg width="25" height="25" viewBox="0 0 25 25" fill="none" xmlns="http://www.w3.org/2000/svg">
<g clip-path="url(#clip0_1121_1861)">
<path d="M12.3558 2.18851C15.6 2.18851 15.9808 2.20297 17.263 2.26082C18.4489 2.31384 19.09 2.51148 19.519 2.6802C20.0879 2.90194 20.4928 3.16225 20.917 3.58646C21.3412 4.01066 21.6063 4.41558 21.8232 4.9844C21.9871 5.41343 22.1896 6.05456 22.2426 7.2404C22.3005 8.52266 22.3149 8.90348 22.3149 12.1477C22.3149 15.3919 22.3005 15.7727 22.2426 17.055C22.1896 18.2408 21.992 18.8819 21.8232 19.311C21.6015 19.8798 21.3412 20.2847 20.917 20.7089C20.4928 21.1331 20.0879 21.3982 19.519 21.6152C19.09 21.7791 18.4489 21.9815 17.263 22.0345C15.9808 22.0924 15.6 22.1068 12.3558 22.1068C9.11155 22.1068 8.73073 22.0924 7.44848 22.0345C6.26263 21.9815 5.6215 21.7839 5.19248 21.6152C4.62366 21.3934 4.21874 21.1331 3.79453 20.7089C3.37033 20.2847 3.1052 19.8798 2.88827 19.311C2.72438 18.8819 2.52192 18.2408 2.46889 17.055C2.41104 15.7727 2.39658 15.3919 2.39658 12.1477C2.39658 8.90348 2.41104 8.52266 2.46889 7.2404C2.52192 6.05456 2.71956 5.41343 2.88827 4.9844C3.11002 4.41558 3.37033 4.01066 3.79453 3.58646C4.21874 3.16225 4.62366 2.89712 5.19248 2.6802C5.6215 2.5163 6.26263 2.31384 7.44848 2.26082C8.73073 2.19815 9.11637 2.18851 12.3558 2.18851ZM12.3558 0C9.05853 0 8.64396 0.0144615 7.34725 0.0723076C6.05535 0.130154 5.1732 0.337436 4.40191 0.636307C3.60171 0.944819 2.92684 1.3642 2.25197 2.03907C1.5771 2.71395 1.16253 3.39364 0.849198 4.18902C0.550326 4.9603 0.343044 5.84245 0.285198 7.13917C0.227352 8.43107 0.212891 8.84563 0.212891 12.1429C0.212891 15.4401 0.227352 15.8546 0.285198 17.1514C0.343044 18.4433 0.550326 19.3254 0.849198 20.1015C1.15771 20.9017 1.5771 21.5766 2.25197 22.2515C2.92684 22.9263 3.60653 23.3409 4.40191 23.6542C5.1732 23.9531 6.05535 24.1604 7.35207 24.2182C8.64878 24.2761 9.05853 24.2905 12.3606 24.2905C15.6626 24.2905 16.0724 24.2761 17.3691 24.2182C18.661 24.1604 19.5431 23.9531 20.3192 23.6542C21.1194 23.3457 21.7943 22.9263 22.4692 22.2515C23.1441 21.5766 23.5586 20.8969 23.872 20.1015C24.1708 19.3302 24.3781 18.4481 24.436 17.1514C24.4938 15.8546 24.5083 15.4449 24.5083 12.1429C24.5083 8.84081 24.4938 8.43107 24.436 7.13435C24.3781 5.84245 24.1708 4.9603 23.872 4.1842C23.5634 3.384 23.1441 2.70912 22.4692 2.03425C21.7943 1.35938 21.1146 0.944819 20.3192 0.631486C19.548 0.332615 18.6658 0.125333 17.3691 0.0674871C16.0675 0.0144615 15.653 0 12.3558 0Z" fill="white"/>
<path d="M12.3558 2.18851C15.6 2.18851 15.9808 2.20297 17.263 2.26082C18.4489 2.31384 19.09 2.51148 19.519 2.6802C20.0879 2.90194 20.4928 3.16225 20.917 3.58646C21.3412 4.01066 21.6063 4.41558 21.8232 4.9844C21.9871 5.41343 22.1896 6.05456 22.2426 7.2404C22.3005 8.52266 22.3149 8.90348 22.3149 12.1477C22.3149 15.3919 22.3005 15.7727 22.2426 17.055C22.1896 18.2408 21.992 18.8819 21.8232 19.311C21.6015 19.8798 21.3412 20.2847 20.917 20.7089C20.4928 21.1331 20.0879 21.3982 19.519 21.6152C19.09 21.7791 18.4489 21.9815 17.263 22.0345C15.9808 22.0924 15.6 22.1068 12.3558 22.1068C9.11155 22.1068 8.73073 22.0924 7.44848 22.0345C6.26263 21.9815 5.6215 21.7839 5.19248 21.6152C4.62366 21.3934 4.21874 21.1331 3.79453 20.7089C3.37033 20.2847 3.1052 19.8798 2.88827 19.311C2.72438 18.8819 2.52192 18.2408 2.46889 17.055C2.41104 15.7727 2.39658 15.3919 2.39658 12.1477C2.39658 8.90348 2.41104 8.52266 2.46889 7.2404C2.52192 6.05456 2.71956 5.41343 2.88827 4.9844C3.11002 4.41558 3.37033 4.01066 3.79453 3.58646C4.21874 3.16225 4.62366 2.89712 5.19248 2.6802C5.6215 2.5163 6.26263 2.31384 7.44848 2.26082C8.73073 2.19815 9.11637 2.18851 12.3558 2.18851Z" fill="white"/>
<path d="M12.3559 5.90991C8.91406 5.90991 6.11816 8.70098 6.11816 12.1476C6.11816 15.5943 8.90924 18.3854 12.3559 18.3854C15.8026 18.3854 18.5936 15.5943 18.5936 12.1476C18.5936 8.70098 15.8026 5.90991 12.3559 5.90991ZM12.3559 16.192C10.1192 16.192 8.30667 14.3795 8.30667 12.1428C8.30667 9.90611 10.1192 8.0936 12.3559 8.0936C14.5926 8.0936 16.4051 9.90611 16.4051 12.1428C16.4051 14.3795 14.5926 16.192 12.3559 16.192Z" fill="#111827"/>
<path d="M18.8396 7.11508C19.6436 7.11508 20.2954 6.4633 20.2954 5.65928C20.2954 4.85527 19.6436 4.20349 18.8396 4.20349C18.0356 4.20349 17.3838 4.85527 17.3838 5.65928C17.3838 6.4633 18.0356 7.11508 18.8396 7.11508Z" fill="#111827"/>
</g>
<defs>
<clipPath id="clip0_1121_1861">
<rect width="24.2857" height="24.2857" fill="white" transform="translate(0.212891)"/>
</clipPath>
</defs>
</svg>
