<svg width="24" height="20" viewBox="0 0 24 20" fill="none" xmlns="http://www.w3.org/2000/svg">
<path d="M21.1649 5.26626C21.1743 5.47997 21.1743 5.68397 21.1743 5.89769C21.1837 12.3771 16.4232 19.8572 7.71752 19.8572C5.14986 19.8572 2.62906 19.0897 0.464355 17.652C0.839196 17.7006 1.21404 17.72 1.58888 17.72C3.7161 17.72 5.78709 16.9817 7.4645 15.612C5.44036 15.5731 3.65987 14.2034 3.04138 12.2023C3.75358 12.348 4.48452 12.3189 5.17797 12.1149C2.97579 11.668 1.39209 9.65713 1.38271 7.31598C1.38271 7.29655 1.38271 7.27712 1.38271 7.25769C2.03869 7.63655 2.779 7.85027 3.52868 7.86969C1.45768 6.43197 0.811083 3.56625 2.0668 1.32224C4.47515 4.39197 8.01739 6.2474 11.822 6.4514C11.4378 4.7514 11.9626 2.96396 13.1902 1.75939C15.0925 -0.0960466 18.0912 0.0010967 19.8905 1.9731C20.9494 1.75939 21.9708 1.35139 22.8986 0.778242C22.5425 1.91482 21.8021 2.87653 20.8182 3.48854C21.7553 3.37196 22.6737 3.10968 23.5358 2.72111C22.8986 3.71197 22.0926 4.56683 21.1649 5.26626Z" fill="white"/>
</svg>
